<svg width="22" height="22" viewBox="0 0 22 22" fill="none" xmlns="http://www.w3.org/2000/svg">
<path d="M11 10.3599V10.15C11 9.46996 11.42 9.10995 11.84 8.81995C12.25 8.53995 12.66 8.17996 12.66 7.51996C12.66 6.59996 11.92 5.85992 11 5.85992C10.08 5.85992 9.34003 6.59996 9.34003 7.51996M10.9955 12.7499H11.0045M16 17.43H12L7.54999 20.39C6.88999 20.83 6 20.36 6 19.56V17.43C3 17.43 1 15.43 1 12.43V6.42993C1 3.42993 3 1.42993 6 1.42993H16C19 1.42993 21 3.42993 21 6.42993V12.43C21 15.43 19 17.43 16 17.43Z" stroke="#292D32" stroke-width="1.5" stroke-linecap="round" stroke-linejoin="round"/>
</svg>
