<svg width="14" height="15" viewBox="0 0 14 15" fill="none" xmlns="http://www.w3.org/2000/svg">
<path d="M13.3533 10.12C13.2467 9.94 12.9467 9.66 12.2 9.79333C11.7867 9.86666 11.3667 9.9 10.9467 9.88C9.39334 9.81333 7.98667 9.1 7.00667 8C6.14 7.03333 5.60667 5.77333 5.6 4.41333C5.6 3.65333 5.74667 2.92 6.04667 2.22666C6.34 1.55333 6.13334 1.2 5.98667 1.05333C5.83334 0.899996 5.47334 0.686663 4.76667 0.979996C2.04 2.12666 0.353337 4.86 0.553337 7.78666C0.753337 10.54 2.68667 12.8933 5.24667 13.78C5.86 13.9933 6.50667 14.12 7.17334 14.1467C7.28 14.1533 7.38667 14.16 7.49334 14.16C9.72667 14.16 11.82 13.1067 13.14 11.3133C13.5867 10.6933 13.4667 10.3 13.3533 10.12Z" fill="#A0AEC0"/>
</svg>
